<?xml version="1.0" ?><svg id="Layer_1" style="enable-background:new 0 0 24 24;" version="1.1" viewBox="0 0 24 24" xml:space="preserve" xmlns="http://www.w3.org/2000/svg" xmlns:xlink="http://www.w3.org/1999/xlink"><g id="XMLID_1429_"><path d="   M19.5,21.5h-16V22c0,0.828,0.672,1.5,1.5,1.5h13c0.828,0,1.5-0.672,1.5-1.5V21.5z" id="XMLID_48_" style="fill:none;stroke:#303C42;stroke-linecap:round;stroke-linejoin:round;stroke-miterlimit:10;"/><path d="   M14.5,5c0,1.381-1.119,2.5-2.5,2.5S9.5,6.381,9.5,5S12,0.5,12,0.5s0.322,0.929,1,2C13.561,3.388,14.5,3.917,14.5,5z" id="XMLID_1430_" style="fill:none;stroke:#303C42;stroke-linecap:round;stroke-linejoin:round;stroke-miterlimit:10;"/><line id="XMLID_1431_" style="fill:none;stroke:#303C42;stroke-linecap:round;stroke-linejoin:round;stroke-miterlimit:10;" x1="12" x2="12" y1="9" y2="6.5"/><circle cx="19.5" cy="20.5" id="XMLID_1432_" r="1" style="fill:none;stroke:#303C42;stroke-linecap:round;stroke-linejoin:round;stroke-miterlimit:10;"/><line id="XMLID_1433_" style="fill:none;stroke:#303C42;stroke-linecap:round;stroke-linejoin:round;stroke-miterlimit:10;" x1="8.5" x2="8.5" y1="11.412" y2="21.5"/><line id="XMLID_1434_" style="fill:none;stroke:#303C42;stroke-linecap:round;stroke-linejoin:round;stroke-miterlimit:10;" x1="15.5" x2="15.5" y1="21.5" y2="14.294"/><path d="   M13.5,11.5c1.524,0.65,0.672,3,1.5,3s1.5-1.343,1.5-3s-0.672-3-1.5-3c0,0-2.25,0.5-3,0.5S9,8.5,9,8.5c-0.828,0-1.5,0.672-1.5,1.5   s0.672,1.5,1.5,1.5c0.394,0,0.655-0.408,1.019-0.4c0.606,0.013,1.374,1.391,1.981,1.4C12.451,12.506,13.085,11.323,13.5,11.5z" id="XMLID_1435_" style="fill:none;stroke:#303C42;stroke-linecap:round;stroke-linejoin:round;stroke-miterlimit:10;"/></g></svg>