<?xml version="1.0" ?><!DOCTYPE svg  PUBLIC '-//W3C//DTD SVG 1.1//EN'  'http://www.w3.org/Graphics/SVG/1.1/DTD/svg11.dtd'><svg enable-background="new 0 0 800 800" height="800px" id="Layer_1" version="1.1" viewBox="0 0 800 800" width="800px" xml:space="preserve" xmlns="http://www.w3.org/2000/svg" xmlns:xlink="http://www.w3.org/1999/xlink"><g><path d="M717.995,243.604l-94.774-94.774c-9.806-9.814-22.873-15.257-36.812-15.345   c-1.651-0.228-3.31-0.406-5.019-0.406h-49.399c-4.023,0-7.873,1.63-10.67,4.513c-2.804,2.887-4.313,6.783-4.198,10.802   c0.025,0.772,0.084,1.535,0.133,2.298l0.066,0.95c0,58.143-52.635,105.443-117.324,105.443s-117.323-47.3-117.323-105.443   l0.066-0.996c0.05-0.734,0.1-1.464,0.133-2.202c0.133-4.028-1.377-7.936-4.182-10.836c-2.796-2.896-6.654-4.53-10.686-4.53h-45.665   c-2.141,0-4.306,0.17-6.737,0.535c-14.719-0.589-28.591,4.974-38.821,15.216l-94.781,94.774   c-20.485,20.492-20.485,53.837-0.009,74.334l77.458,77.441c4.24,4.248,9.151,7.7,14.52,10.251v212.93   c0,26.665,21.704,48.361,48.37,48.361h359.049c26.664,0,48.353-21.696,48.353-48.361V403.604c3.981-2.256,7.592-5.007,10.803-8.222   l77.458-77.445C738.487,297.44,738.479,264.096,717.995,243.604z M385.131,637.186H222.342c-10.271,0-18.635-8.354-18.635-18.626   V395.055c0-7.031-4.928-13.104-11.807-14.548c-4.372-0.921-8.321-3.045-11.424-6.148l-77.45-77.445   c-8.902-8.898-8.894-23.384,0.009-32.287l94.773-94.773c4.215-4.21,9.915-6.534,16.046-6.534c0.539,0,1.079,0.017,1.618,0.054   c1.195,0.083,2.406,0.012,3.593-0.191c1.07-0.195,2.148-0.369,3.277-0.369h31.096c5.799,64.81,61.553,116.789,131.693,123.293   V637.186z M696.979,296.909l-77.458,77.454c-2.439,2.431-5.525,4.26-9.193,5.438c-6.148,1.975-10.32,7.696-10.32,14.155V618.56   c0,10.271-8.347,18.626-18.617,18.626H414.866V286.107c70.141-6.504,125.896-58.483,131.694-123.293h34.729   c0.391,0.021,0.764,0.087,1.146,0.141l1.21,0.157c0.599,0.075,1.818,0.108,2.424,0.108c6.123,0,11.848,2.356,16.128,6.633   l94.766,94.773C705.873,273.529,705.873,288.015,696.979,296.909z" fill="#4D4D4D"/><path d="M232.87,341.549v28.52c0,7.04,5.7,12.744,12.744,12.744h99.818c7.036,0,12.744-5.704,12.744-12.744v-28.52   c0-7.04-5.708-12.743-12.744-12.743h-99.818C238.57,328.806,232.87,334.51,232.87,341.549z" fill="#4D4D4D"/><path d="M552.857,330.349h-89.464c-6.886,0-12.859,4.721-14.46,11.416c-0.764,3.195-1.138,6.173-1.138,9.11v42.081   c0,21.663,17.623,39.285,39.294,39.285h42.081c21.653,0,39.275-17.622,39.275-39.285v-42.081c0-2.937-0.364-5.915-1.128-9.11   C565.726,335.07,559.735,330.349,552.857,330.349z M538.711,392.956c0,5.265-4.281,9.549-9.54,9.549H487.09   c-5.27,0-9.559-4.285-9.559-9.549v-32.871h61.18V392.956z" fill="#4D4D4D"/></g></svg>